<?xml version="1.0" encoding="UTF-8"?>
<svg xmlns="http://www.w3.org/2000/svg" version="1.1" width="500" height="500" viewBox="0 0 500 500"><rect x="0" y="0" width="500" height="500" fill="#ffffff"/><g transform="scale(20)"><g transform="translate(0,0)"><path fill-rule="evenodd" d="M8 0L8 1L9 1L9 2L8 2L8 5L9 5L9 4L11 4L11 5L10 5L10 10L6 10L6 11L7 11L7 12L6 12L6 13L5 13L5 9L4 9L4 8L0 8L0 9L2 9L2 11L3 11L3 9L4 9L4 12L3 12L3 13L5 13L5 14L4 14L4 15L5 15L5 16L2 16L2 17L5 17L5 16L6 16L6 17L7 17L7 16L6 16L6 15L10 15L10 14L6 14L6 13L8 13L8 12L9 12L9 13L11 13L11 16L12 16L12 17L14 17L14 16L15 16L15 15L14 15L14 16L12 16L12 14L13 14L13 13L14 13L14 14L16 14L16 15L17 15L17 16L16 16L16 17L15 17L15 18L13 18L13 19L15 19L15 20L14 20L14 21L13 21L13 22L14 22L14 21L15 21L15 22L17 22L17 23L19 23L19 21L20 21L20 24L17 24L17 25L25 25L25 24L23 24L23 23L24 23L24 22L25 22L25 21L24 21L24 20L25 20L25 15L24 15L24 14L25 14L25 12L23 12L23 11L21 11L21 10L20 10L20 9L23 9L23 10L24 10L24 9L25 9L25 8L24 8L24 9L23 9L23 8L20 8L20 9L19 9L19 10L20 10L20 11L18 11L18 12L17 12L17 13L16 13L16 12L14 12L14 9L13 9L13 6L14 6L14 8L15 8L15 9L16 9L16 11L17 11L17 10L18 10L18 8L17 8L17 3L15 3L15 1L14 1L14 2L13 2L13 0L12 0L12 1L11 1L11 0L10 0L10 1L9 1L9 0ZM16 0L16 1L17 1L17 0ZM11 2L11 4L12 4L12 3L13 3L13 2ZM12 5L12 6L11 6L11 8L12 8L12 6L13 6L13 5ZM15 5L15 7L16 7L16 5ZM8 6L8 7L9 7L9 6ZM6 8L6 9L7 9L7 8ZM8 8L8 9L9 9L9 8ZM11 9L11 10L12 10L12 9ZM11 11L11 13L12 13L12 12L13 12L13 11ZM20 11L20 12L21 12L21 16L24 16L24 15L22 15L22 14L24 14L24 13L22 13L22 12L21 12L21 11ZM1 12L1 15L0 15L0 16L1 16L1 15L3 15L3 14L2 14L2 12ZM5 14L5 15L6 15L6 14ZM17 14L17 15L18 15L18 16L19 16L19 15L20 15L20 14ZM8 16L8 18L10 18L10 19L11 19L11 20L9 20L9 21L8 21L8 25L10 25L10 24L11 24L11 25L13 25L13 24L16 24L16 23L10 23L10 22L11 22L11 20L12 20L12 19L11 19L11 17L10 17L10 16ZM17 17L17 20L20 20L20 17ZM21 17L21 20L22 20L22 21L23 21L23 20L24 20L24 19L22 19L22 17ZM23 17L23 18L24 18L24 17ZM15 18L15 19L16 19L16 18ZM18 18L18 19L19 19L19 18ZM15 20L15 21L16 21L16 20ZM21 22L21 24L22 24L22 22ZM9 23L9 24L10 24L10 23ZM0 0L0 7L7 7L7 0ZM1 1L1 6L6 6L6 1ZM2 2L2 5L5 5L5 2ZM18 0L18 7L25 7L25 0ZM19 1L19 6L24 6L24 1ZM20 2L20 5L23 5L23 2ZM0 18L0 25L7 25L7 18ZM1 19L1 24L6 24L6 19ZM2 20L2 23L5 23L5 20Z" fill="#000000"/></g></g></svg>
